<svg width="115" height="21" viewBox="0 0 115 21" fill="none" xmlns="http://www.w3.org/2000/svg">
<path d="M12.3818 7.41016L12.4941 7.75488H18.9482L14.0205 11.335L13.7266 11.5488L13.8389 11.8936L15.7197 17.6846L10.7939 14.1064L10.5 13.8926L10.2061 14.1064L5.2793 17.6846L7.16113 11.8936L7.27344 11.5488L6.97949 11.335L2.05176 7.75488H8.50586L8.61816 7.41016L10.5 1.61719L12.3818 7.41016Z" fill="#FFC107" stroke="#0A490A"/>
<path d="M35.3818 7.41016L35.4941 7.75488H41.9482L37.0205 11.335L36.7266 11.5488L36.8389 11.8936L38.7197 17.6846L33.7939 14.1064L33.5 13.8926L33.2061 14.1064L28.2793 17.6846L30.1611 11.8936L30.2734 11.5488L29.9795 11.335L25.0518 7.75488H31.5059L31.6182 7.41016L33.5 1.61719L35.3818 7.41016Z" fill="#FFC107" stroke="#0A490A"/>
<path d="M58.3818 7.41016L58.4941 7.75488H64.9482L60.0205 11.335L59.7266 11.5488L59.8389 11.8936L61.7197 17.6846L56.7939 14.1064L56.5 13.8926L56.2061 14.1064L51.2793 17.6846L53.1611 11.8936L53.2734 11.5488L52.9795 11.335L48.0518 7.75488H54.5059L54.6182 7.41016L56.5 1.61719L58.3818 7.41016Z" fill="#FFC107" stroke="#0A490A"/>
<path d="M81.3818 7.41016L81.4941 7.75488H87.9482L83.0205 11.335L82.7266 11.5488L82.8389 11.8936L84.7197 17.6846L79.7939 14.1064L79.5 13.8926L79.2061 14.1064L74.2793 17.6846L76.1611 11.8936L76.2734 11.5488L75.9795 11.335L71.0518 7.75488H77.5059L77.6182 7.41016L79.5 1.61719L81.3818 7.41016Z" fill="#FFC107" stroke="#0A490A"/>
<path d="M104.382 7.41016L104.494 7.75488H110.948L106.021 11.335L105.727 11.5488L105.839 11.8936L107.72 17.6846L102.794 14.1064L102.5 13.8926L102.206 14.1064L97.2793 17.6846L99.1611 11.8936L99.2734 11.5488L98.9795 11.335L94.0518 7.75488H100.506L100.618 7.41016L102.5 1.61719L104.382 7.41016Z" fill="white" stroke="#0A490A"/>
</svg>
