<svg width="115" height="21" viewBox="0 0 115 21" fill="none" xmlns="http://www.w3.org/2000/svg">
<path d="M10.5 0L12.8574 7.25532H20.4861L14.3143 11.7394L16.6717 18.9947L10.5 14.5106L4.32825 18.9947L6.68565 11.7394L0.513906 7.25532H8.1426L10.5 0Z" fill="#FFC107"/>
<path d="M33.5 0L35.8574 7.25532H43.4861L37.3143 11.7394L39.6717 18.9947L33.5 14.5106L27.3283 18.9947L29.6857 11.7394L23.5139 7.25532H31.1426L33.5 0Z" fill="#FFC107"/>
<path d="M56.5 0L58.8574 7.25532H66.4861L60.3143 11.7394L62.6717 18.9947L56.5 14.5106L50.3283 18.9947L52.6857 11.7394L46.5139 7.25532H54.1426L56.5 0Z" fill="#FFC107"/>
<path d="M79.5 0L81.8574 7.25532H89.4861L83.3143 11.7394L85.6717 18.9947L79.5 14.5106L73.3283 18.9947L75.6857 11.7394L69.5139 7.25532H77.1426L79.5 0Z" fill="#FFC107"/>
<path d="M104.382 7.41016L104.494 7.75488H110.948L106.021 11.335L105.727 11.5488L105.839 11.8936L107.72 17.6846L102.794 14.1064L102.5 13.8926L102.206 14.1064L97.2793 17.6846L99.1611 11.8936L99.2734 11.5488L98.9795 11.335L94.0518 7.75488H100.506L100.618 7.41016L102.5 1.61719L104.382 7.41016Z" stroke="#0A490A"/>
</svg>
