<svg width="34" height="29" viewBox="0 0 34 29" fill="none" xmlns="http://www.w3.org/2000/svg">
<path d="M22.2742 15.0615C22.2789 15.3124 22.1549 15.5568 21.9238 15.7522L14.1744 22.2686C13.9114 22.4904 13.5306 22.6319 13.1158 22.6619C12.7011 22.6919 12.2864 22.608 11.9629 22.4287C11.6395 22.2493 11.4338 21.9892 11.3911 21.7056C11.3484 21.4219 11.4722 21.138 11.7353 20.9162L18.679 15.0947L11.8071 9.40064C11.675 9.29198 11.5756 9.16647 11.5147 9.03133C11.4538 8.89618 11.4326 8.75406 11.4523 8.61314C11.472 8.47221 11.5322 8.33526 11.6295 8.21015C11.7267 8.08504 11.8591 7.97424 12.019 7.88413C12.1789 7.78428 12.3671 7.70804 12.5718 7.66019C12.7766 7.61233 12.9935 7.59389 13.2089 7.60602C13.4243 7.61815 13.6336 7.66059 13.8236 7.73068C14.0137 7.80077 14.1805 7.897 14.3135 8.01334L21.9968 14.3873C22.1969 14.5843 22.2946 14.8217 22.2742 15.0615Z" fill="#0A490A"/>
</svg>
